<svg width="75" height="78" viewBox="0 0 75 78" fill="none" xmlns="http://www.w3.org/2000/svg">
<path d="M41.0555 20.3577C41.0789 20.5307 41.0459 20.713 40.9808 20.8713C40.9138 21.034 40.8066 21.1767 40.6699 21.2849C40.5331 21.3931 40.3719 21.4629 40.2024 21.4874C38.4221 21.7567 37.135 22.5119 36.2681 23.7773C34.8501 25.8721 34.9479 28.8514 35.1225 30.3928C37.3117 30.0739 39.545 31.3842 40.4762 33.7157C40.5703 33.9721 40.6477 34.2435 40.7213 34.5241C42.5108 35.075 44.0298 36.3092 44.9342 37.9657C45.6944 39.3342 46.8399 41.7321 48.3487 45.0848C51.3996 51.8368 53.2164 58.8323 53.7691 65.8632C54.0634 69.718 53.9208 72.3372 53.2571 73.9257C52.9138 74.786 52.4032 75.338 51.7589 75.6282C49.9013 76.4427 47.42 74.7909 43.7334 70.2486C42.113 68.265 40.6296 66.1528 39.2703 63.9174L44.5905 61.5768C44.9236 61.4308 45.177 61.1976 45.3368 60.9367C45.4837 60.6815 45.5191 60.3912 45.425 60.1348C45.2241 59.6276 44.5212 59.4474 43.864 59.7432L38.2786 62.1924C37.4516 60.731 36.6924 59.2323 35.9741 57.685L42.0079 55.0393C42.3281 54.8988 42.5944 54.66 42.7413 54.4047C42.8921 54.1402 42.9365 53.8536 42.8334 53.5935C42.6325 53.0863 41.9385 52.9098 41.2724 53.2019L35.1836 55.8795C34.5925 54.4825 34.0348 53.0557 33.5321 51.5972C33.3877 51.1568 33.2356 50.735 33.1015 50.3206L39.093 47.701C39.426 47.555 39.6795 47.3217 39.8303 47.0572C39.9811 46.7926 40.0254 46.506 39.9185 46.2553C39.7176 45.7481 39.0237 45.5716 38.3614 45.8544L32.4685 48.4384C31.9823 46.9821 31.5328 45.5123 31.1206 44.0305C30.6457 42.1677 30.8778 40.1719 31.7706 38.4413C31.6201 38.1944 31.4876 37.9549 31.3897 37.7078C30.8384 36.3163 30.8458 34.7409 31.401 33.3908C31.738 32.5714 32.2714 31.8873 32.9243 31.372C32.0156 30.1601 30.0679 27.9767 27.6466 27.5578C26.182 27.3148 24.7661 27.7448 23.331 28.8855C23.2295 28.9683 23.1135 29.03 22.9897 29.067C22.8659 29.104 22.7368 29.1154 22.6099 29.1007C22.483 29.086 22.3609 29.0455 22.2506 28.9814C22.1404 28.9174 22.0442 28.8311 21.9678 28.7277C21.6439 28.2897 21.7248 27.6589 22.1601 27.3154C24.0343 25.8219 26.0064 25.2396 28.025 25.5908C29.3216 25.8083 30.4778 26.3927 31.4664 27.104L28.8593 20.5237C28.8116 20.4033 28.7877 20.2738 28.789 20.1427C28.7904 20.0116 28.8168 19.8813 28.867 19.7594C28.9171 19.6375 28.9899 19.5263 29.0812 19.4322C29.1726 19.3381 29.2806 19.2629 29.3992 19.2108C29.5178 19.1588 29.6446 19.1311 29.7725 19.1291C29.9003 19.1271 30.0266 19.151 30.1442 19.1993C30.2618 19.2477 30.3684 19.3196 30.4578 19.4109C30.5473 19.5023 30.6179 19.6112 30.6656 19.7316L33.2726 26.3119C33.4973 25.0763 33.9078 23.7973 34.6737 22.6753C35.8577 20.9198 37.6391 19.8563 39.9667 19.5072C40.505 19.4238 40.9878 19.8074 41.0555 20.3577Z" fill="url(#paint0_linear_287_253)"/>
<circle cx="30.4439" cy="24.4439" r="8.92858" transform="rotate(20 30.4439 24.4439)" fill="#EE6167"/>
<path d="M37.162 13.2456C35.2776 11.1128 33.0065 9.38381 31.0335 7.97401C30.9123 7.88735 30.7713 7.83051 30.6224 7.80827C30.4735 7.78603 30.3211 7.79904 30.1779 7.8462C30.0347 7.89336 29.9049 7.97329 29.7994 8.07928C29.694 8.18528 29.616 8.31423 29.5719 8.45532L27.1005 16.3637L22.9668 14.4932C22.8547 14.4424 22.7332 14.4139 22.6094 14.4091C22.4856 14.4043 22.3619 14.4234 22.2453 14.4654C22.1287 14.5073 22.0216 14.5712 21.93 14.6534C21.8385 14.7356 21.7643 14.8345 21.7117 14.9445C19.9503 18.6284 19.2602 21.8261 19.6604 24.4486C20.0834 27.2204 21.6185 29.7064 23.9279 31.3597C26.2373 33.0129 29.1319 33.6979 31.9749 33.264C34.8179 32.8302 37.3763 31.313 39.0875 29.0462C40.7987 26.7794 41.5224 23.9487 41.0994 21.1768C40.6681 18.3506 39.3801 15.7563 37.162 13.2456ZM37.4485 22.8058C37.4444 24.2709 36.9601 25.6998 36.0666 26.8835C35.173 28.0672 33.917 28.9437 32.4823 29.3847C32.436 29.3991 32.3886 29.41 32.3406 29.4174C32.1057 29.4529 31.8665 29.4007 31.6707 29.2713C31.4748 29.1419 31.3368 28.9447 31.2841 28.7192C31.2314 28.4937 31.2681 28.2564 31.3866 28.0548C31.5052 27.8532 31.6969 27.7022 31.9236 27.6318C32.9698 27.2998 33.8847 26.6552 34.5382 25.7895C35.1917 24.9238 35.5505 23.8811 35.5638 22.8096C35.5644 22.6888 35.5895 22.5692 35.6375 22.4575C35.6855 22.3458 35.7554 22.2442 35.8434 22.1586C35.9314 22.073 36.0357 22.0051 36.1503 21.9586C36.2649 21.9122 36.3875 21.8881 36.5113 21.8879C36.635 21.8876 36.7574 21.9112 36.8715 21.9572C36.9856 22.0031 37.0891 22.0707 37.1761 22.1559C37.2632 22.2412 37.332 22.3424 37.3787 22.4539C37.4255 22.5655 37.4492 22.685 37.4485 22.8058Z" fill="url(#paint1_linear_287_253)"/>
<defs>
<linearGradient id="paint0_linear_287_253" x1="34.5044" y1="33.4267" x2="51.0809" y2="76.2879" gradientUnits="userSpaceOnUse">
<stop stop-color="#FF6136"/>
<stop offset="1" stop-color="#FB9275"/>
</linearGradient>
<linearGradient id="paint1_linear_287_253" x1="28.1412" y1="8.14346" x2="31.9749" y2="33.264" gradientUnits="userSpaceOnUse">
<stop stop-color="#A0B892"/>
<stop offset="1" stop-color="#73946E"/>
</linearGradient>
</defs>
</svg>
